HIERARCHY
ROOT Hips
{
	OFFSET	0.000000	0.000000	0.000000
	CHANNELS 6 Xposition Yposition Zposition Zrotation Xrotation Yrotation
	JOINT LeftUpLeg
	{
		OFFSET	12.830505	-7.049846	-1.643436
		CHANNELS 3 Zrotation Xrotation Yrotation
		JOINT LeftLeg
		{
			OFFSET	0.620834	-39.957502	-1.919341
			CHANNELS 3 Zrotation Xrotation Yrotation
			JOINT LeftFoot
			{
				OFFSET	-0.413890	-44.704761	-3.870325
				CHANNELS 3 Zrotation Xrotation Yrotation
				JOINT LeftFootHeel
				{
					OFFSET	0.164738	-8.918194	-6.555130
					CHANNELS 3 Zrotation Xrotation Yrotation
					End Site
					{
						OFFSET	-0.604053	0.000000	21.044330
					}
				}
			}
		}
	}
	JOINT RightUpLeg
	{
		OFFSET	-12.830505	-7.049846	-1.643436
		CHANNELS 3 Zrotation Xrotation Yrotation
		JOINT RightLeg
		{
			OFFSET	-0.620834	-39.957502	-1.919341
			CHANNELS 3 Zrotation Xrotation Yrotation
			JOINT RightFoot
			{
				OFFSET	0.413890	-44.704761	-3.870325
				CHANNELS 3 Zrotation Xrotation Yrotation
				JOINT RightFootHeel
				{
					OFFSET	-0.164738	-8.918194	-6.555130
					CHANNELS 3 Zrotation Xrotation Yrotation
					End Site
					{
						OFFSET	0.604053	0.000000	21.044330
					}
				}
			}
		}
	}
	JOINT Spine
	{
		OFFSET	0.000000	12.498171	1.820647
		CHANNELS 3 Zrotation Xrotation Yrotation
		JOINT Spine1
		{
			OFFSET	0.000000	7.620000	0.000000
			CHANNELS 3 Zrotation Xrotation Yrotation
			JOINT LeftShoulder
			{
				OFFSET	9.167800	29.136339	-5.551221
				CHANNELS 3 Zrotation Xrotation Yrotation
				JOINT LeftArm
				{
					OFFSET	12.133453	-3.880866	1.461963
					CHANNELS 3 Zrotation Xrotation Yrotation
					JOINT LeftForeArm
					{
						OFFSET	2.507115	-31.664910	-1.069404
						CHANNELS 3 Zrotation Xrotation Yrotation
						JOINT LeftHand
						{
							OFFSET	4.116172	-24.512624	5.009439
							CHANNELS 3 Zrotation Xrotation Yrotation
							End Site
							{
								OFFSET	-0.213136	-10.931856	2.182134
							}
						}
					}
				}
			}
			JOINT RightShoulder
			{
				OFFSET	-9.167800	29.136339	-5.551221
				CHANNELS 3 Zrotation Xrotation Yrotation
				JOINT RightArm
				{
					OFFSET	-12.133453	-3.880866	1.461963
					CHANNELS 3 Zrotation Xrotation Yrotation
					JOINT RightForeArm
					{
						OFFSET	-2.507115	-31.664910	-1.069404
						CHANNELS 3 Zrotation Xrotation Yrotation
						JOINT RightHand
						{
							OFFSET	-4.116172	-24.512624	5.009439
							CHANNELS 3 Zrotation Xrotation Yrotation
							End Site
							{
								OFFSET	0.213136	-10.931856	2.182134
							}
						}
					}
				}
			}
			JOINT Neck
			{
				OFFSET	0.000000	32.926275	-3.635654
				CHANNELS 3 Zrotation Xrotation Yrotation
				JOINT Head
				{
					OFFSET	0.000000	12.481178	4.646143
					CHANNELS 3 Zrotation Xrotation Yrotation
					End Site
					{
						OFFSET	0.000000	17.715205	-2.222063
					}
				}
			}
		}
	}
}
MOTION
Frames:     18
Frame Time: 0.016667
0.000000	103.193428	0.000000	-0.079737	-0.073646	-0.762910	-0.086236	0.024663	0.280581	-0.085777	0.014072	0.073126	0.251050	0.034838	0.409236	0.	0.	0.	0.081608	-0.295463	0.887401	-0.117862	0.256177	-0.093323	0.120551	0.114184	-0.030736	0.	0.	0.	0.000000	-0.000000	-0.000001	0.345156	-0.288922	0.448256	0.050013	-0.040687	-0.144170	-0.085397	-0.001073	1.411897	-0.357691	-0.737235	3.157212	-2.603582	-1.293091	2.246162	-0.065456	0.319593	-0.115451	-0.211496	-0.064186	0.675029	-0.089429	-0.449346	1.323163	-0.047155	-0.722520	-0.200021	-0.267226	0.230048	0.056719	-0.865694	0.828367	1.492208	
0.000000	103.193428	0.000000	-0.079737	-0.073646	-0.762910	-0.086236	0.024663	0.280581	-0.085777	0.014072	0.073126	0.251050	0.034838	0.409236	0.	0.	0.	0.081608	-0.295463	0.887401	-0.117862	0.256177	-0.093323	0.120551	0.114184	-0.030736	0.	0.	0.	0.000000	-0.000000	-0.000001	0.345156	-0.288922	0.448256	0.050013	-0.040687	-0.144170	-0.087102	-0.002572	1.436152	-0.358496	-0.740884	3.178221	-2.606633	-1.307531	2.259026	-0.065456	0.319593	-0.115451	-0.211496	-0.064186	0.675029	-0.090348	-0.439495	1.322211	-0.049586	-0.732918	-0.192116	-0.261112	0.231680	0.054693	-0.869457	0.825935	1.491852	
0.000000	103.193428	0.000000	-0.079737	-0.073646	-0.762910	-0.086236	0.024663	0.280581	-0.085777	0.014072	0.073126	0.251050	0.034838	0.409236	0.	0.	0.	0.081608	-0.295463	0.887401	-0.117862	0.256177	-0.093323	0.120551	0.114184	-0.030736	0.	0.	0.	0.000000	-0.000000	-0.000001	0.345156	-0.288922	0.448256	0.050013	-0.040687	-0.144170	-0.088424	-0.003752	1.454949	-0.363641	-0.792494	3.189500	-2.594301	-1.358724	2.289775	-0.065456	0.319593	-0.115451	-0.211496	-0.064186	0.675029	-0.092985	-0.411095	1.319473	-0.050183	-0.761810	-0.183617	-0.255028	0.233303	0.052679	-0.875568	0.824288	1.493817	
0.000000	103.193428	0.000000	-0.079737	-0.073646	-0.762910	-0.086236	0.024663	0.280581	-0.085777	0.014072	0.073126	0.251050	0.034838	0.409236	0.	0.	0.	0.081608	-0.295463	0.887401	-0.117862	0.256177	-0.093323	0.120551	0.114184	-0.030736	0.	0.	0.	0.000000	-0.000000	-0.000001	0.345156	-0.288922	0.448256	0.050013	-0.040687	-0.144170	-0.089839	-0.004985	1.474742	-0.367358	-0.842987	3.166001	-2.594175	-1.349276	2.301744	-0.065456	0.319593	-0.115451	-0.211496	-0.064186	0.675029	-0.096861	-0.369575	1.313565	-0.085786	-0.794685	-0.140642	-0.255028	0.233303	0.052679	-0.875568	0.824288	1.493817	
0.000000	103.193428	0.000000	-0.079737	-0.073646	-0.762910	-0.086236	0.024663	0.280581	-0.085777	0.014072	0.073126	0.251050	0.034838	0.409236	0.	0.	0.	0.081608	-0.295463	0.887401	-0.117862	0.256177	-0.093323	0.120551	0.114184	-0.030736	0.	0.	0.	0.000000	-0.000000	-0.000001	0.345561	-0.289261	0.451436	0.049609	-0.040347	-0.147349	-0.090542	-0.005608	1.484625	-0.368493	-0.863474	3.146884	-2.648936	-1.338310	2.291153	-0.065840	0.319939	-0.118629	-0.211496	-0.064186	0.675029	-0.100111	-0.334525	1.310184	-0.117549	-0.813944	-0.130598	-0.255418	0.233660	0.049502	-0.875568	0.824288	1.493817	
0.000000	103.193428	0.000000	-0.079737	-0.073646	-0.762910	-0.086236	0.024663	0.280581	-0.085777	0.014072	0.073126	0.251050	0.034838	0.409236	0.	0.	0.	0.081608	-0.295463	0.887401	-0.117862	0.256177	-0.093323	0.120551	0.114184	-0.030736	0.	0.	0.	0.000000	-0.000000	-0.000001	0.347319	-0.290703	0.465107	0.047853	-0.038903	-0.161013	-0.092298	-0.007153	1.509135	-0.368924	-0.893952	3.089001	-2.637374	-1.318745	2.274668	-0.067510	0.321411	-0.132291	-0.211496	-0.064186	0.675029	-0.100111	-0.334525	1.310184	-0.135297	-0.802285	-0.138151	-0.251216	0.236760	0.033894	-0.881489	0.822679	1.495721	
0.000000	103.193428	0.000000	-0.079737	-0.073646	-0.762910	-0.086236	0.024663	0.280581	-0.085777	0.014072	0.073126	0.251050	0.034838	0.409236	0.	0.	0.	0.081608	-0.295463	0.887401	-0.117862	0.256177	-0.093323	0.120551	0.114184	-0.030736	0.	0.	0.	0.000000	-0.000000	-0.000001	0.349390	-0.292405	0.481225	0.045786	-0.037198	-0.177121	-0.091848	-0.007227	1.502427	-0.369598	-0.910809	3.060743	-2.632231	-1.307494	2.287573	-0.069476	0.323148	-0.148395	-0.211496	-0.064186	0.675029	-0.100111	-0.334525	1.310184	-0.143726	-0.818110	-0.143198	-0.241088	0.241798	0.013775	-0.886974	0.818802	1.506613	
0.000000	103.193428	0.000000	-0.079737	-0.073646	-0.762910	-0.086236	0.024663	0.280581	-0.085777	0.014072	0.073126	0.251050	0.034838	0.409236	0.	0.	0.	0.081608	-0.295463	0.887401	-0.117862	0.256177	-0.093323	0.120551	0.114184	-0.030736	0.	0.	0.	0.000000	-0.000000	-0.000001	0.351610	-0.294220	0.498455	0.043570	-0.035377	-0.194342	-0.088944	-0.011145	1.455649	-0.370216	-0.904727	3.076001	-2.628654	-1.316946	2.286350	-0.071584	0.325004	-0.165613	-0.211496	-0.064186	0.675029	-0.100111	-0.334525	1.310184	-0.164576	-0.827287	-0.140139	-0.234231	0.246112	-0.006419	-0.885717	0.818729	1.519142	
0.000000	103.193428	0.000000	-0.079737	-0.073646	-0.762910	-0.086236	0.024663	0.280581	-0.085777	0.014072	0.073126	0.251050	0.034838	0.409236	0.	0.	0.	0.081608	-0.295463	0.887401	-0.117862	0.256177	-0.093323	0.120551	0.114184	-0.030736	0.	0.	0.	0.000000	-0.000000	-0.000001	0.353580	-0.295840	0.513774	0.041605	-0.033750	-0.209651	-0.087409	-0.019562	1.423990	-0.370735	-0.895978	3.101084	-2.627496	-1.325395	2.288347	-0.073452	0.326661	-0.180919	-0.211496	-0.064186	0.675029	-0.096460	-0.374313	1.310294	-0.191884	-0.793659	-0.134912	-0.236120	0.247813	-0.021721	-0.872645	0.832703	1.527682	
0.000000	103.193428	0.000000	-0.079737	-0.073646	-0.762910	-0.086236	0.024663	0.280581	-0.085777	0.014072	0.073126	0.251050	0.034838	0.409236	0.	0.	0.	0.081608	-0.295463	0.887401	-0.117862	0.256177	-0.093323	0.120551	0.114184	-0.030736	0.	0.	0.	0.000000	-0.000000	-0.000001	0.353580	-0.295840	0.513774	0.041605	-0.033750	-0.209651	-0.087235	-0.026166	1.414206	-0.370593	-0.889436	3.110910	-2.627496	-1.325395	2.288347	-0.073452	0.326661	-0.180919	-0.211496	-0.064186	0.675029	-0.096460	-0.374313	1.310294	-0.191884	-0.793659	-0.134912	-0.236120	0.247813	-0.021721	-0.872645	0.832703	1.527682	
0.000000	103.193428	0.000000	-0.079737	-0.073646	-0.762910	-0.086236	0.024663	0.280581	-0.085777	0.014072	0.073126	0.251050	0.034838	0.409236	0.	0.	0.	0.081608	-0.295463	0.887401	-0.117862	0.256177	-0.093323	0.120551	0.114184	-0.030736	0.	0.	0.	0.000000	-0.000000	-0.000001	0.354456	-0.296562	0.520583	0.040732	-0.033026	-0.216456	-0.086771	-0.028896	1.404329	-0.370836	-0.886759	3.120806	-2.624865	-1.357442	2.294394	-0.074283	0.327399	-0.187723	-0.211496	-0.064186	0.675029	-0.091743	-0.425236	1.315195	-0.227994	-0.754809	-0.134912	-0.236961	0.248571	-0.028522	-0.855283	0.857606	1.536890	
0.000000	103.193428	0.000000	-0.079737	-0.073646	-0.762910	-0.086236	0.024663	0.280581	-0.085777	0.014072	0.073126	0.251050	0.034838	0.409236	0.	0.	0.	0.081608	-0.295463	0.887401	-0.117862	0.256177	-0.093323	0.120551	0.114184	-0.030736	0.	0.	0.	0.000000	-0.000000	-0.000001	0.354456	-0.296562	0.520583	0.040732	-0.033026	-0.216456	-0.085290	-0.027592	1.383693	-0.372730	-0.902410	3.122880	-2.645045	-1.346440	2.310778	-0.074283	0.327399	-0.187723	-0.211496	-0.064186	0.675029	-0.091743	-0.425236	1.315195	-0.236243	-0.770316	-0.139874	-0.220537	0.253009	-0.033976	-0.868063	0.870893	1.539981	
0.000000	103.193428	0.000000	-0.079737	-0.073646	-0.762910	-0.086236	0.024663	0.280581	-0.085777	0.014072	0.073126	0.251050	0.034838	0.409236	0.	0.	0.	0.081608	-0.295463	0.887401	-0.117862	0.256177	-0.093323	0.120551	0.114184	-0.030736	0.	0.	0.	0.000000	-0.000000	-0.000001	0.354456	-0.296562	0.520583	0.040732	-0.033026	-0.216456	-0.083319	-0.025843	1.356205	-0.373909	-0.912636	3.116963	-2.693749	-1.344859	2.338284	-0.074283	0.327399	-0.187723	-0.211496	-0.064186	0.675029	-0.090700	-0.436471	1.316273	-0.250871	-0.785045	-0.149215	-0.206013	0.256942	-0.038798	-0.877519	0.891469	1.541607	
0.000000	103.193428	0.000000	-0.079737	-0.073646	-0.762910	-0.086236	0.024663	0.280581	-0.085777	0.014072	0.073126	0.251050	0.034838	0.409236	0.	0.	0.	0.081608	-0.295463	0.887401	-0.117862	0.256177	-0.093323	0.120551	0.114184	-0.030736	0.	0.	0.	0.000000	-0.000000	-0.000001	0.354456	-0.296562	0.520583	0.040732	-0.033026	-0.216456	-0.082509	-0.025132	1.344960	-0.375958	-0.899859	3.171691	-2.773696	-1.368276	2.374617	-0.074283	0.327399	-0.187723	-0.211496	-0.064186	0.675029	-0.089357	-0.450927	1.317659	-0.261288	-0.788197	-0.156185	-0.190931	0.261027	-0.043808	-0.889481	0.902517	1.544591	
0.000000	103.193428	0.000000	-0.079737	-0.073646	-0.762910	-0.086236	0.024663	0.280581	-0.085777	0.014072	0.073126	0.251050	0.034838	0.409236	0.	0.	0.	0.081608	-0.295463	0.887401	-0.117862	0.256177	-0.093323	0.120551	0.114184	-0.030736	0.	0.	0.	0.000000	-0.000000	-0.000001	0.354456	-0.296562	0.520583	0.040732	-0.033026	-0.216456	-0.081070	-0.023840	1.324723	-0.385897	-0.896260	3.350608	-2.946211	-1.415135	2.485299	-0.074283	0.327399	-0.187723	-0.211496	-0.064186	0.675029	-0.089049	-0.454280	1.317982	-0.269728	-0.800253	-0.161441	-0.174130	0.265584	-0.049387	-0.904192	0.908230	1.548735	
0.000000	103.193428	0.000000	-0.079737	-0.073646	-0.762910	-0.086236	0.024663	0.280581	-0.085777	0.014072	0.073126	0.251050	0.034838	0.409236	0.	0.	0.	0.081608	-0.295463	0.887401	-0.117862	0.256177	-0.093323	0.120551	0.114184	-0.030736	0.	0.	0.	0.000000	-0.000000	-0.000001	0.354456	-0.296562	0.520583	0.040732	-0.033026	-0.216456	-0.079902	-0.022796	1.308148	-0.402841	-0.939126	3.575185	-3.123142	-1.419037	2.628953	-0.074283	0.327399	-0.187723	-0.211496	-0.064186	0.675029	-0.088030	-0.465198	1.319026	-0.295209	-0.793142	-0.109454	-0.155484	0.270640	-0.055577	-0.922927	0.903060	1.554757	
0.000000	103.193428	0.000000	-0.079737	-0.073646	-0.762910	-0.086236	0.024663	0.280581	-0.085777	0.014072	0.073126	0.251050	0.034838	0.409236	0.	0.	0.	0.081608	-0.295463	0.887401	-0.117862	0.256177	-0.093323	0.120551	0.114184	-0.030736	0.	0.	0.	0.000000	-0.000000	-0.000001	0.354456	-0.296562	0.520583	0.040732	-0.033026	-0.216456	-0.079644	-0.019129	1.308400	-0.414268	-0.969948	3.748243	-3.244506	-1.444072	2.756800	-0.077019	0.327697	-0.189923	-0.208754	-0.064481	0.677244	-0.093379	-0.465174	1.373396	-0.323955	-0.760394	-0.043694	-0.135708	0.275999	-0.062143	-0.940493	0.896826	1.558887	
0.000000	103.193428	0.000000	-0.079737	-0.073646	-0.762910	-0.086236	0.024663	0.280581	-0.085777	0.014072	0.073126	0.251050	0.034838	0.409236	0.	0.	0.	0.081608	-0.295463	0.887401	-0.117862	0.256177	-0.093323	0.120551	0.114184	-0.030736	0.	0.	0.	0.000000	-0.000000	-0.000001	0.354456	-0.296562	0.520583	0.040732	-0.033026	-0.216456	-0.078591	-0.004154	1.309420	-0.419741	-0.994559	3.846819	-3.313353	-1.487936	2.842049	-0.088526	0.328935	-0.199165	-0.197234	-0.065716	0.686548	-0.102226	-0.458376	1.456383	-0.351566	-0.713686	0.022734	-0.114413	0.281776	-0.069217	-0.951976	0.887669	1.556048	
